# xmcd
#
# Track frame offsets:
# 150
# 20777
# 41578
# 64520
# 83371
# 101728
# 120257
# 142874
# 158649
# 177426
#
# Disc length: 2681 seconds
#
#
# Revision: 0
# Processed by: cddbd v1.5.1PL0 Copyright (c) Steve Scherf et al.
# Submitted via: FreeRIP 2.90 
#
DISCID=720a770a
DTITLE=Joaquin Sabina - Juez y parte
DYEAR=1985
DGENRE=Alt. Rock
TTITLE0=Whisky sin soda
TTITLE1=Cuando era más joven
TTITLE2=Ciudadano cero
TTITLE3=El joven aprendiz de pintor
TTITLE4=Rebajas de enero
TTITLE5=Kung-Fu
TTITLE6=Balada de Tolito
TTITLE7=Incompatibilidad de caracteres
TTITLE8=Princesa
TTITLE9=Quedate a dormir
EXTD=
EXTT0=
EXTT1=
EXTT2=
EXTT3=
EXTT4=
EXTT5=
EXTT6=
EXTT7=
EXTT8=
EXTT9=
PLAYORDER=
